<?xml version="1.0" standalone="no"?>
<!DOCTYPE svg PUBLIC "-//W3C//DTD SVG 20010904//EN"
 "http://www.w3.org/TR/2001/REC-SVG-20010904/DTD/svg10.dtd">
<svg version="1.0" xmlns="http://www.w3.org/2000/svg"
 width="512.000000pt" height="512.000000pt" viewBox="0 0 512.000000 512.000000"
 preserveAspectRatio="xMidYMid meet">

<g transform="translate(0.000000,512.000000) scale(0.100000,-0.100000)"
fill="#000000" stroke="none">
<path d="M1982 4679 c-368 -65 -672 -353 -764 -726 -27 -111 -30 -310 -5 -420
52 -227 185 -432 372 -571 80 -59 195 -116 302 -149 80 -24 103 -27 258 -27
182 -1 238 8 368 61 410 165 658 612 582 1046 -64 365 -323 656 -681 763 -75
22 -112 27 -234 30 -80 1 -169 -1 -198 -7z"/>
<path d="M3280 2589 c-337 -39 -626 -226 -807 -524 -160 -264 -196 -597 -98
-895 113 -341 402 -613 751 -707 89 -24 117 -27 274 -27 153 -1 186 2 264 23
667 176 1011 895 721 1508 -60 126 -106 193 -203 295 -179 186 -407 299 -665
327 -107 12 -129 12 -237 0z m-192 -548 c20 -11 89 -72 152 -135 121 -122 153
-141 201 -116 13 7 78 66 144 131 66 65 133 123 148 128 72 28 164 -4 198 -69
21 -39 25 -110 8 -143 -7 -12 -67 -79 -134 -148 -74 -75 -125 -135 -127 -150
-8 -52 12 -83 131 -204 66 -66 125 -133 130 -148 49 -129 -63 -256 -192 -217
-30 9 -72 43 -173 141 -179 175 -168 176 -364 -17 -114 -112 -146 -134 -197
-134 -43 0 -110 39 -134 76 -24 40 -29 116 -9 155 7 13 68 81 136 150 120 121
124 127 124 169 0 41 -4 47 -124 169 -67 69 -129 137 -136 150 -17 33 -15 111
4 148 15 30 53 64 86 76 32 12 92 6 128 -12z"/>
<path d="M1795 2500 c-334 -24 -637 -159 -882 -393 -278 -266 -433 -620 -437
-992 -1 -123 2 -149 23 -213 56 -173 188 -307 367 -375 59 -22 64 -22 697 -25
449 -2 643 1 658 8 31 17 59 71 59 114 0 30 -12 57 -49 115 -143 223 -216 450
-228 707 -13 287 56 556 204 798 47 75 57 99 57 138 1 57 -26 98 -75 115 -37
13 -232 14 -394 3z"/>
</g>
</svg>
